<svg width="102" height="34" viewBox="0 0 102 34" fill="none" xmlns="http://www.w3.org/2000/svg">
<path d="M11.2 33.984C10.304 33.984 9.856 32.7467 9.856 30.272C9.856 26.4747 11.3707 21.9733 14.4 16.768C13.7173 15.5733 13.376 14.784 13.376 14.4C13.376 13.5893 13.9307 13.184 15.04 13.184C15.552 13.184 15.8933 13.44 16.064 13.952C19.648 8.576 23.296 4.992 27.008 3.2C27.0933 3.2 27.1573 3.2 27.2 3.2C27.2853 3.15733 27.3493 3.136 27.392 3.136C27.648 3.136 27.968 3.24266 28.352 3.456C28.736 3.66933 28.928 3.88267 28.928 4.096C28.928 4.26667 28.864 4.352 28.736 4.352L25.792 7.296C24.5547 8.53333 23.2533 9.94133 21.888 11.52C20.5227 13.0987 19.0933 14.8267 17.6 16.704C18.24 17.856 18.7733 18.5813 19.2 18.88C19.6693 19.136 20.5227 19.264 21.76 19.264C24.6187 19.264 27.7333 18.6453 31.104 17.408C34.4747 16.1707 37.2693 14.6347 39.488 12.8C41.7493 10.9227 42.88 9.17333 42.88 7.552C42.88 5.888 41.6 4.58666 39.04 3.648C36.48 2.66667 33.1093 2.176 28.928 2.176C17.9627 2.176 9.10933 4.52267 2.368 9.216C1.77067 9.55733 1.344 9.728 1.088 9.728C0.405333 9.728 0.064 9.38667 0.064 8.704C0.064 7.21067 1.49333 5.86667 4.352 4.672C7.168 3.43467 10.56 2.45333 14.528 1.728C16.4907 1.38666 18.4107 1.13066 20.288 0.959999C22.1653 0.746666 23.9787 0.639999 25.728 0.639999H26.56C31.8507 0.639999 36.16 1.32267 39.488 2.688C41.3653 3.456 42.6453 4.30933 43.328 5.248C44.0533 6.144 44.416 7.14667 44.416 8.256C44.416 9.92 43.7547 11.4773 42.432 12.928C41.152 14.3787 39.4453 15.68 37.312 16.832C35.2213 17.9413 32.9387 18.816 30.464 19.456C27.9893 20.0533 25.6 20.352 23.296 20.352C22.016 20.352 20.8213 20.288 19.712 20.16C24.7893 28.352 28.5867 32.448 31.104 32.448C31.5733 32.448 31.9787 32.32 32.32 32.064C32.6613 31.808 32.8747 31.4027 32.96 30.848L33.472 28.16C33.8987 28.4587 34.112 28.9707 34.112 29.696C34.112 30.1227 34.0267 30.592 33.856 31.104C33.6853 31.5733 33.3653 32.0427 32.896 32.512C32.128 33.3653 31.0827 33.792 29.76 33.792C28.4373 33.792 26.4533 32.448 23.808 29.76C21.1627 26.9867 18.5173 23.488 15.872 19.264C12.4587 25.1093 10.752 29.4187 10.752 32.192C10.752 32.9173 11.008 33.4507 11.52 33.792C11.52 33.92 11.4133 33.984 11.2 33.984ZM41.1885 32.512C40.3352 32.512 39.5458 32.128 38.8205 31.36C38.1378 30.5493 37.7965 29.5253 37.7965 28.288C37.7965 27.0507 38.5432 25.1307 40.0365 22.528C41.5298 19.968 43.3645 17.664 45.5405 15.616C47.6738 13.6107 49.5085 12.608 51.0445 12.608H51.6845C53.2632 12.608 54.6072 12.928 55.7165 13.568C56.8258 14.1653 57.3805 14.976 57.3805 16C57.3805 16.4693 57.1885 16.704 56.8045 16.704C56.6765 16.704 56.6125 16.64 56.6125 16.512C55.9298 14.9333 54.8845 14.144 53.4765 14.144C51.0445 14.144 48.2712 16.1493 45.1565 20.16C42.0418 24.0853 40.4845 27.1147 40.4845 29.248C40.4845 30.0587 40.6978 30.464 41.1245 30.464C43.0445 30.464 47.0765 26.1333 53.2205 17.472C53.1778 17.5147 53.1992 17.5147 53.2845 17.472C53.4125 17.3867 53.5192 17.344 53.6045 17.344C53.8178 17.344 54.2658 17.5573 54.9485 17.984C55.6312 18.368 55.9725 18.7093 55.9725 19.008C55.9725 19.008 55.8872 19.1573 55.7165 19.456C55.5458 19.712 55.3325 20.1173 55.0765 20.672C54.3938 22.1227 53.8605 23.552 53.4765 24.96C53.1352 26.3253 52.9645 27.52 52.9645 28.544C52.9645 30.8053 53.5192 31.936 54.6285 31.936L55.2685 31.808L55.3965 31.872C55.3965 32.256 54.8632 32.448 53.7965 32.448C52.7725 32.448 51.9192 31.9787 51.2365 31.04C50.5965 30.0587 50.2765 28.7573 50.2765 27.136C50.2765 25.5573 50.5538 23.808 51.1085 21.888C51.0658 22.016 50.9165 22.2507 50.6605 22.592C50.4045 22.9333 49.9992 23.5307 49.4445 24.384C45.9458 29.8027 43.1938 32.512 41.1885 32.512ZM63.75 32.768C62.47 32.768 61.83 32.4693 61.83 31.872C62.47 25.0027 62.79 20.9493 62.79 19.712C62.79 16.1707 62.2567 14.3787 61.19 14.336C61.1047 14.3787 60.9553 14.5707 60.742 14.912C60.5713 15.2533 60.422 15.424 60.294 15.424C59.91 15.424 59.718 15.1253 59.718 14.528C59.718 13.6747 60.422 13.248 61.83 13.248C64.518 13.248 65.862 15.616 65.862 20.352C65.862 20.5653 65.8193 21.0133 65.734 21.696C65.6913 22.3787 65.5847 23.3173 65.414 24.512C65.414 24.6827 65.4993 24.768 65.67 24.768C65.7553 24.768 65.8407 24.704 65.926 24.576C66.0113 24.4053 66.0753 24.2987 66.118 24.256C69.1047 20.032 71.8353 16.6613 74.31 14.144C76.8273 11.584 78.662 10.304 79.814 10.304C80.326 10.304 80.582 10.5387 80.582 11.008C80.582 11.2213 80.518 11.392 80.39 11.52C77.9153 12.9707 75.1633 15.3387 72.134 18.624C69.19 21.7813 66.9287 25.472 65.35 29.696C64.838 31.744 64.3047 32.768 63.75 32.768ZM84.2735 9.664C83.3348 9.664 82.5668 9.408 81.9695 8.896C82.7802 8.34133 83.6335 7.616 84.5295 6.72C85.4682 5.824 86.4282 4.75733 87.4095 3.52C87.4948 3.52 87.5375 3.62667 87.5375 3.84L87.2175 5.696C87.0042 7.01867 86.6202 8.02133 86.0655 8.704C85.5108 9.344 84.9135 9.664 84.2735 9.664ZM78.1295 32.96C76.5082 32.96 75.6975 31.7867 75.6975 29.44C75.6975 25.8987 76.9775 21.2267 79.5375 15.424C79.5375 15.2533 79.6442 14.9333 79.8575 14.464C80.1135 13.9947 80.3055 13.696 80.4335 13.568C80.7322 13.2693 81.1375 13.12 81.6495 13.12C83.1428 13.12 83.9535 13.4187 84.0815 14.016C83.3988 15.1253 82.7375 16.4053 82.0975 17.856C81.5002 19.3067 80.9028 20.9067 80.3055 22.656C79.6655 24.5333 79.1962 26.0907 78.8975 27.328C78.6415 28.5227 78.5135 29.4827 78.5135 30.208C78.5135 31.2747 78.7908 31.808 79.3455 31.808C79.7295 31.808 80.2202 31.5733 80.8175 31.104C81.2868 30.72 81.6068 30.4427 81.7775 30.272C81.9908 30.1013 82.1828 29.952 82.3535 29.824C82.5242 29.824 82.6095 29.9093 82.6095 30.08C82.6095 30.5493 81.9908 31.1467 80.7535 31.872C79.5162 32.5973 78.6415 32.96 78.1295 32.96ZM87.8485 33.216C85.9712 33.216 85.0325 32.2133 85.0325 30.208C85.0325 28.416 85.6298 26.0693 86.8245 23.168C87.2938 22.0587 87.7632 20.9493 88.2325 19.84C88.7018 18.7307 89.2352 17.472 89.8325 16.064C88.3818 15.5093 87.6565 14.6773 87.6565 13.568C87.6565 13.2267 87.7418 12.992 87.9125 12.864C88.5525 13.1627 89.5338 13.376 90.8565 13.504C92.2645 10.3467 92.9685 8.34133 92.9685 7.488C92.9685 6.54933 92.7978 6.08 92.4565 6.08L91.1765 6.4C91.0485 6.4 90.9845 6.336 90.9845 6.208C90.9845 5.86667 91.2405 5.61067 91.7525 5.44C92.2645 5.22667 92.6485 5.12 92.9045 5.12C94.7818 5.12 95.7205 6.18667 95.7205 8.32C95.7205 9.55733 95.3365 11.1787 94.5685 13.184C94.7392 13.3547 95.5072 13.44 96.8725 13.44C98.2805 13.44 99.3472 13.2907 100.073 12.992C100.755 12.6507 101.246 12.48 101.545 12.48C101.673 12.48 101.737 12.5227 101.737 12.608C101.737 12.736 101.63 12.9067 101.417 13.12C100.521 13.888 99.4538 14.5493 98.2165 15.104C97.0218 15.6587 95.6352 16.0427 94.0565 16.256H93.8645C93.8218 16.256 93.7578 16.2773 93.6725 16.32C93.5872 16.32 93.4165 16.3627 93.1605 16.448C89.2778 24.1707 87.3365 29.0773 87.3365 31.168C87.3365 31.8507 87.5925 32.192 88.1045 32.192L89.8965 31.808L89.9605 31.872C89.9605 32.768 89.2565 33.216 87.8485 33.216Z" fill="white"/>
</svg>
